<?xml version="1.0" encoding="UTF-8" standalone="no"?>
<svg
   width="27"
   height="24"
   fill="none"
   viewBox="0 0 27 24"
   version="1.1"
   id="svg4039"
   xmlns="http://www.w3.org/2000/svg"
   xmlns:svg="http://www.w3.org/2000/svg">
  <defs
     id="defs4043" />
  <path
     fill="#E01F26"
     fill-rule="evenodd"
     clip-rule="evenodd"
     d="M21.95 1.1a32.86 32.86 0 0 0-16.9 0A5.04 5.04 0 0 0 1.41 5a26.4 26.4 0 0 0 0 10.13 5.04 5.04 0 0 0 3.64 3.9 32.4 32.4 0 0 0 10.28 1.05c.44-.02.89.13 1.23.42l4.08 3.44a.25.25 0 0 0 .41-.2v-3.99c0-.29.2-.54.48-.61l.42-.1a5.04 5.04 0 0 0 3.64-3.9A26.4 26.4 0 0 0 25.6 5a5.04 5.04 0 0 0-3.64-3.9Zm-3.2 3.36c.37 0 .68.3.68.68v2.4c0 .38-.3.69-.69.69h-2.4c-.38 0-.68.3-.68.68v6.52c0 .38-.3.68-.69.68h-2.74a.69.69 0 0 1-.69-.68V8.9c0-.37-.3-.68-.68-.68h-2.4a.69.69 0 0 1-.69-.69v-2.4c0-.38.31-.68.69-.68h10.28Z"
     id="path4037"
     style="fill:#ffffff" />
</svg>
