<?xml version="1.0" encoding="UTF-8" standalone="no"?>
<svg
   version="1.0"
   width="933.000000pt"
   height="1280.000000pt"
   viewBox="0 0 933.000000 1280.000000"
   preserveAspectRatio="xMidYMid meet"
   id="svg10"
   sodipodi:docname="3071686.svg"
   inkscape:version="1.2.2 (b0a8486, 2022-12-01)"
   xmlns:inkscape="http://www.inkscape.org/namespaces/inkscape"
   xmlns:sodipodi="http://sodipodi.sourceforge.net/DTD/sodipodi-0.dtd"
   xmlns="http://www.w3.org/2000/svg"
   xmlns:svg="http://www.w3.org/2000/svg">
  <defs
     id="defs14">
    <rect
       x="557.83548"
       y="92.97258"
       width="575.05263"
       height="251.37031"
       id="rect2594" />
    <rect
       x="581.93948"
       y="134.29373"
       width="482.08004"
       height="223.82288"
       id="rect2588" />
    <rect
       x="557.83548"
       y="106.7463"
       width="612.93034"
       height="234.15316"
       id="rect2528" />
  </defs>
  <sodipodi:namedview
     id="namedview12"
     pagecolor="#ffffff"
     bordercolor="#000000"
     borderopacity="0.25"
     inkscape:showpageshadow="2"
     inkscape:pageopacity="0.0"
     inkscape:pagecheckerboard="0"
     inkscape:deskcolor="#d1d1d1"
     inkscape:document-units="pt"
     showgrid="false"
     inkscape:zoom="0.2904082"
     inkscape:cx="514.79262"
     inkscape:cy="354.67318"
     inkscape:window-width="1440"
     inkscape:window-height="456"
     inkscape:window-x="0"
     inkscape:window-y="25"
     inkscape:window-maximized="0"
     inkscape:current-layer="svg10" />
  <metadata
     id="metadata2">
Created by potrace 1.15, written by Peter Selinger 2001-2017
</metadata>
  <g
     transform="matrix(0.03070188,0,0,-0.02316893,39.43109,320.99326)"
     fill="#000000"
     stroke="none"
     id="g8"
     style="fill:#ffffff">
    <path
       d="m 5440,12789 c -238,-13 -456,-39 -604,-70 -159,-33 -222,-35 -356,-13 -192,32 -335,19 -769,-72 -597,-125 -1048,-281 -1561,-540 -322,-162 -491,-273 -732,-478 -249,-213 -334,-340 -496,-746 -137,-342 -165,-459 -165,-680 0,-117 5,-188 23,-288 l 23,-132 -37,-95 c -74,-194 -73,-320 9,-854 76,-494 202,-994 419,-1671 93,-289 133,-403 284,-795 219,-571 271,-785 317,-1313 l 15,-173 -40,-69 c -22,-38 -75,-137 -118,-220 l -79,-150 -99,-4 c -120,-5 -171,-23 -220,-80 -34,-39 -245,-447 -314,-606 -36,-83 -128,-242 -196,-338 -24,-35 -44,-67 -44,-71 0,-5 48,-12 107,-16 366,-24 643,-101 967,-269 261,-135 364,-207 771,-534 258,-208 351,-287 616,-527 101,-92 217,-197 257,-234 216,-194 338,-310 587,-551 476,-462 1025,-895 1405,-1110 90,-50 190,-95 190,-84 0,25 -125,179 -311,385 -42,46 -97,110 -123,143 l -47,58 21,21 c 44,40 64,123 105,431 14,104 32,212 40,240 8,28 26,119 40,201 56,325 105,495 229,785 83,193 159,343 211,415 35,48 43,55 65,50 40,-10 228,-104 465,-234 515,-282 1015,-476 1410,-547 151,-27 426,-25 562,4 202,44 398,128 586,252 174,115 179,130 108,336 -123,355 -189,744 -177,1039 14,339 18,908 7,1023 -11,116 -13,123 -67,232 -30,61 -56,123 -57,138 -3,35 52,66 155,89 106,22 122,41 121,132 -2,118 -74,439 -122,545 -15,33 -56,98 -89,144 -34,45 -62,86 -62,90 0,14 94,32 241,46 150,15 181,27 229,83 42,51 190,347 190,381 0,35 -33,105 -102,217 -124,201 -475,807 -524,903 -65,128 -96,239 -96,341 0,103 18,139 122,246 48,50 94,101 103,115 22,31 21,70 0,130 -15,43 -16,54 -3,102 28,111 20,149 -173,798 -108,360 -157,537 -201,720 -20,80 -51,192 -71,249 -19,58 -35,118 -35,134 0,18 41,99 114,225 62,108 131,233 153,277 102,202 213,564 213,689 0,160 -177,347 -522,552 -733,435 -1811,662 -2868,603 z"
       id="path4"
       style="fill:#ffffff" />
    <path
       d="M 685,2930 C 635,2923 290,2785 155,2718 53,2668 1,2635 10,2626 c 3,-2 155,-30 339,-61 612,-103 687,-121 920,-227 86,-39 221,-100 300,-135 215,-95 380,-182 594,-310 422,-254 641,-401 1020,-686 381,-287 715,-517 750,-517 16,0 -74,101 -297,330 -120,124 -241,252 -269,285 -27,32 -61,68 -76,79 -14,10 -75,67 -136,126 -120,117 -523,456 -736,620 -150,115 -367,260 -505,339 -126,71 -654,323 -803,383 -148,60 -325,92 -426,78 z"
       id="path6"
       style="fill:#ffffff" />
  </g>
  <rect
     style="fill:#000000;fill-rule:evenodd;stroke:#000000;stroke-width:0.6;stroke-linecap:round;paint-order:markers stroke fill"
     id="rect904"
     width="315.07373"
     height="289.24802"
     x="23.243145"
     y="20.660574" />
  <g
     transform="matrix(0.02219096,0,0,-0.01903108,80.828832,296.44452)"
     fill="#000000"
     stroke="none"
     id="g962"
     style="fill:#ffffff">
    <path
       d="m 5102.3403,12789.44 c -221.0458,-12.379 -423.5163,-37.138 -560.9733,-66.658 -147.6735,-31.424 -206.1856,-33.329 -330.6399,-12.379 -178.3227,30.472 -311.1359,18.093 -714.2194,-68.562 -554.4719,-119.032 -973.3444,-267.584 -1449.8002,-514.218 -299.062,-154.265 -456.023,-259.965 -679.8551,-455.177 -231.2622,-202.831 -310.2071,-323.767 -460.66684,-710.382 -127.24064,-325.671 -153.24602,-437.085 -153.24602,-647.533 0,-111.414 4.64381,-179.024 21.36156,-274.249 l 21.36157,-125.6979 -34.36426,-90.4642 c -68.72852,-184.7373 -67.79976,-304.7214 8.35887,-813.2252 70.58605,-470.4137 187.61029,-946.5409 389.15202,-1591.2171 86.375,-275.2015 123.5256,-383.7585 263.7689,-757.0422 203.3993,-543.7373 251.695,-747.5197 294.4181,-1250.31 l 13.9315,-164.74 -37.1506,-65.7056 c -20.4328,-36.1856 -69.6572,-130.4588 -109.5941,-209.4959 l -73.3723,-142.8382 -91.9476,-3.809 c -111.4517,-4.7613 -158.8186,-21.9019 -204.3281,-76.1804 -31.5779,-37.1379 -227.54709,-425.6577 -291.63179,-577.0661 -33.4355,-79.0371 -118.88177,-230.4456 -182.0377,-321.862 C 718.57528,3817.2993 700,3786.8272 700,3783.0182 c 0,-4.7613 44.58066,-11.4271 99.37772,-15.2361 339.92758,-22.8541 597.19508,-96.1777 898.11458,-256.1564 242.4073,-128.5544 338.07,-197.1167 716.0769,-508.5039 239.621,-198.0689 325.996,-273.297 572.1185,-501.838 93.8051,-87.6074 201.5417,-187.5941 238.6922,-222.8276 200.613,-184.7373 313.9222,-295.1988 545.1844,-524.6921 442.0915,-439.9415 951.9828,-852.26768 1304.9131,-1057.00237 83.5887,-47.61272 176.4651,-90.46417 176.4651,-79.98937 0,23.80636 -116.0955,170.45353 -288.8455,366.61793 -39.0081,43.80371 -90.0901,104.74801 -114.238,136.17241 l -43.6519,55.2307 19.5041,19.9974 c 40.8656,38.0901 59.4408,117.1273 97.5202,410.4216 13.0026,99.0345 29.7204,201.8779 37.1505,228.5411 7.4301,26.6631 24.1479,113.3182 37.1506,191.4031 52.0107,309.4827 97.5202,471.3659 212.6869,747.5197 77.0874,183.7851 147.6734,326.6232 195.9691,395.1855 32.5068,45.7082 39.9369,52.374 60.3697,47.6127 37.1505,-9.5225 211.7581,-99.0344 431.8751,-222.8275 478.3134,-268.5357 942.6953,-453.2731 1309.5569,-520.8831 140.2434,-25.7109 395.6534,-23.8064 521.9653,3.809 187.6103,41.8992 369.648,121.8886 544.2556,239.9681 161.6049,109.5093 166.2487,123.7931 100.3064,319.9575 -114.2379,338.0503 -175.5363,708.4772 -164.3911,989.3923 13.0026,322.8142 16.7177,864.6469 6.5013,974.1562 -10.2164,110.4615 -12.0739,117.1273 -62.2272,220.923 -27.8629,58.0875 -52.0107,117.1273 -52.9395,131.4111 -2.7863,33.3289 48.2957,62.8488 143.9584,84.7506 98.4489,20.9496 113.3092,39.0425 112.3804,125.6976 -1.8575,112.366 -68.7285,418.0397 -113.3092,518.9787 -13.9314,31.4244 -52.0108,93.3209 -82.66,137.1246 -31.5779,42.8514 -57.5833,81.8939 -57.5833,85.7029 0,13.3315 87.3038,30.4721 223.8321,43.8037 139.3145,14.2838 168.1062,25.7109 212.6869,79.0371 39.008,48.565 176.4651,330.4323 176.4651,362.8089 0,33.3289 -30.6492,99.9867 -94.7339,206.6392 -115.1667,191.4031 -441.1628,768.4693 -486.6722,859.8857 -60.3697,121.8886 -89.1614,227.5888 -89.1614,324.7188 0,98.0822 16.7178,132.3633 113.3092,234.2545 44.5807,47.6127 87.3038,96.1777 95.6627,109.5093 20.4328,29.5199 19.504,66.6578 0,123.793 -13.9315,40.947 -14.8602,51.4218 -2.7863,97.13 26.0054,105.7002 18.5753,141.8859 -160.6761,759.899 -100.3065,342.8116 -145.816,511.3603 -186.6816,685.6233 -18.5752,76.18 -47.3669,182.833 -65.9422,237.111 -17.6465,55.231 -32.5067,112.366 -32.5067,127.602 0,17.141 38.0793,94.273 105.879,214.257 57.5834,102.844 121.6681,221.876 142.1009,263.775 94.7339,192.355 197.8267,537.071 197.8267,656.103 0,152.361 -164.3912,330.432 -484.8147,525.645 -680.7838,414.23 -1681.9912,630.392 -2663.6945,574.209 z"
       id="path958"
       style="fill:#ffffff;stroke-width:0.940436" />
    <path
       d="M 685,2930 C 635,2923 290,2785 155,2718 53,2668 1,2635 10,2626 c 3,-2 155,-30 339,-61 612,-103 687,-121 920,-227 86,-39 221,-100 300,-135 215,-95 380,-182 594,-310 422,-254 641,-401 1020,-686 381,-287 715,-517 750,-517 16,0 -74,101 -297,330 -120,124 -241,252 -269,285 -27,32 -61,68 -76,79 -14,10 -75,67 -136,126 -120,117 -523,456 -736,620 -150,115 -367,260 -505,339 -126,71 -654,323 -803,383 -148,60 -325,92 -426,78 z"
       id="path960"
       style="fill:#ffffff" />
  </g>
  <rect
     style="fill:#000000;fill-rule:evenodd;stroke:#000000;stroke-width:0.6;stroke-linecap:round;paint-order:markers stroke fill"
     id="rect2472"
     width="7.747715"
     height="276.33517"
     x="374.4729"
     y="28.408287" />
  <text
     xml:space="preserve"
     transform="scale(0.75)"
     id="text2526"
     style="fill:#000000;stroke:#000000;stroke-linecap:round;paint-order:markers stroke fill;fill-rule:evenodd;stroke-width:0.8;white-space:pre;shape-inside:url(#rect2528)" />
  <text
     xml:space="preserve"
     transform="scale(0.75)"
     id="text2592"
     style="fill:#000000;stroke:#000000;stroke-linecap:round;paint-order:markers stroke fill;fill-rule:evenodd;stroke-width:0.8;white-space:pre;shape-inside:url(#rect2594)" />
  <text
     xml:space="preserve"
     style="font-style:normal;font-variant:normal;font-weight:normal;font-stretch:normal;font-size:175.787px;font-family:AppleGothic;-inkscape-font-specification:AppleGothic;fill:#000000;fill-rule:evenodd;stroke:#000000;stroke-width:0.732446;stroke-linecap:round;paint-order:markers stroke fill"
     x="416.07999"
     y="226.32866"
     id="text2600"
     transform="scale(0.96534948,1.0358943)"><tspan
       sodipodi:role="line"
       id="tspan2598"
       style="font-style:normal;font-variant:normal;font-weight:normal;font-stretch:normal;font-size:175.787px;font-family:AppleGothic;-inkscape-font-specification:AppleGothic;stroke-width:0.732446"
       x="416.07999"
       y="226.32866">NOVIK</tspan></text>
</svg>
